<svg width="20" height="20" viewBox="0 0 20 20" fill="none" xmlns="http://www.w3.org/2000/svg">
<path d="M9.99967 10C10.458 10 10.8505 9.83669 11.1772 9.51002C11.5038 9.18335 11.6669 8.79113 11.6663 8.33335C11.6663 7.87502 11.503 7.48252 11.1763 7.15585C10.8497 6.82919 10.4575 6.66613 9.99967 6.66669C9.54134 6.66669 9.14884 6.83002 8.82217 7.15669C8.49551 7.48335 8.33245 7.87558 8.33301 8.33335C8.33301 8.79169 8.49634 9.18419 8.82301 9.51085C9.14967 9.83752 9.5419 10.0006 9.99967 10ZM9.99967 18.3334C7.76356 16.4306 6.09356 14.6634 4.98967 13.0317C3.88579 11.4 3.33356 9.88946 3.33301 8.50002C3.33301 6.41669 4.00329 4.75696 5.34384 3.52085C6.6844 2.28474 8.23634 1.66669 9.99967 1.66669C11.7636 1.66669 13.3158 2.28474 14.6563 3.52085C15.9969 4.75696 16.6669 6.41669 16.6663 8.50002C16.6663 9.88891 16.1141 11.3995 15.0097 13.0317C13.9052 14.6639 12.2352 16.4311 9.99967 18.3334Z" fill="#C4C4C4"/>
</svg>
